<?xml version="1.0" encoding="UTF-8"?>
<svg width="24px" height="33px" viewBox="0 0 24 33" version="1.1" xmlns="http://www.w3.org/2000/svg" xmlns:xlink="http://www.w3.org/1999/xlink">
    <title>企业</title>
    <defs>
        <rect id="path-1" x="0" y="0" width="24" height="32.5333333"></rect>
    </defs>
    <g id="app界面" stroke="none" stroke-width="1" fill="none" fill-rule="evenodd">
        <g id="切图" transform="translate(-626.000000, -53.000000)">
            <g id="形状" transform="translate(626.000000, 53.000000)">
                <mask id="mask-2" fill="white">
                    <use xlink:href="#path-1"></use>
                </mask>
                <g id="蒙版"></g>
                <path d="M19.4854825,21.5444244 C19.3961196,21.622897 19.3026591,21.6965001 19.2055009,21.7649189 C19.1619037,21.7979729 19.1171067,21.8294146 19.0727096,21.8616624 C12.7067264,26.395706 12.0591688,31.6891858 12.0039724,33.0964001 C12.0039724,33.0818886 12.0039724,33.0697956 12.0011726,33.0560903 C11.6191976,27.3393579 7.04469712,23.4220538 5.39320522,22.1877685 C1.05386639,19.3031967 -0.948993848,13.9307362 0.432102606,8.88013601 C1.81319906,3.82953584 6.26412308,0.249550391 11.457081,0.012480233 C16.6500389,-0.224589925 21.4038971,2.9351766 23.2324301,7.83925 C25.0609631,12.7433234 23.5482727,18.2762767 19.4854825,21.5444244 L19.4854825,21.5444244 Z M12.0027724,33.4583819 C12.0027724,33.4583819 11.9963729,33.3281813 12.0055723,33.0955939 C12.4671421,40.0123484 12.0027724,33.4583819 12.0027724,33.4583819 Z" fill="#00aaff" fill-rule="nonzero" mask="url(#mask-2)"></path>
                <g id="尾矿库" mask="url(#mask-2)">
                    <g transform="translate(2.866667, 2.333333)" id="企业">
                        <rect id="矩形" fill="#FFFFFF" fill-rule="nonzero" opacity="0" x="0" y="0" width="18" height="18"></rect>
                        <path d="M12.279375,10.1925 L10.1925,10.1925 C10.0127666,10.1958808 9.84522013,10.101929 9.75436326,9.94681425 C9.66350639,9.79169955 9.66350639,9.59960904 9.75436326,9.44449434 C9.84522013,9.28937964 10.0127666,9.19542776 10.1925,9.19880859 L12.279375,9.19880859 C12.4591084,9.19542776 12.6266549,9.28937964 12.7175117,9.44449434 C12.8083686,9.59960904 12.8083686,9.79169955 12.7175117,9.94681425 C12.6266549,10.101929 12.4591084,10.1958808 12.279375,10.1925 Z M12.279375,12.1800586 L10.1925,12.1800586 C10.0127666,12.1834394 9.84522013,12.0894875 9.75436326,11.9343728 C9.66350639,11.7792581 9.66350639,11.5871676 9.75436326,11.4320529 C9.84522013,11.2769382 10.0127666,11.1829864 10.1925,11.1863672 L12.279375,11.1863672 C12.4591084,11.1829864 12.6266549,11.2769382 12.7175117,11.4320529 C12.8083686,11.5871676 12.8083686,11.7792581 12.7175117,11.9343728 C12.6266549,12.0894875 12.4591084,12.1834394 12.279375,12.1800586 Z" id="形状" fill="#FFFFFF" fill-rule="nonzero"></path>
                        <path d="M9.894375,16.3539844 L3.33544922,16.3539844 C3.20365424,16.3539844 3.07725723,16.301629 2.9840641,16.2084359 C2.89087098,16.1152428 2.83851562,15.9888458 2.83851562,15.8570508 L2.83851562,5.32300781 C2.83851562,5.13260952 2.94733978,4.95896257 3.11871094,4.87599609 L9.67763672,1.69576172 C9.83164615,1.62122355 10.0131643,1.63112577 10.1581515,1.72197488 C10.3031387,1.81282399 10.3912156,1.97185032 10.3913086,2.14294922 L10.3913086,15.8570508 C10.3913086,16.1314996 10.1688238,16.3539844 9.894375,16.3539844 L9.894375,16.3539844 Z M3.83203125,15.3601172 L9.39744141,15.3601172 L9.39744141,2.93554688 L3.83203125,5.63431641 L3.83203125,15.3601172 Z" id="形状" fill="#FFFFFF" fill-rule="nonzero"></path>
                        <path d="M14.7638672,16.3539844 L9.89472656,16.3539844 C9.76293158,16.3539844 9.63653458,16.301629 9.54334145,16.2084359 C9.45014832,16.1152428 9.39779297,15.9888458 9.39779297,15.8570508 L9.39779297,5.15742188 C9.39779297,5.00481666 9.46799095,4.86069203 9.58805387,4.7664941 C9.70811678,4.67229617 9.86479316,4.63846393 10.0130273,4.67472656 L14.882168,5.86722656 C15.1044498,5.92177508 15.2608008,6.12104471 15.2608008,6.34992188 L15.2608008,15.8570508 C15.2608008,16.1314996 15.038316,16.3539844 14.7638672,16.3539844 L14.7638672,16.3539844 Z M10.3913086,15.3601172 L14.2669336,15.3601172 L14.2669336,6.73980469 L10.3913086,5.79058594 L10.3913086,15.3601172 Z" id="形状" fill="#FFFFFF" fill-rule="nonzero"></path>
                        <path d="M15.9563672,16.3539844 L2.04363281,16.3539844 C1.76918397,16.3539844 1.54669922,16.1314996 1.54669922,15.8570508 C1.54669922,15.5826019 1.76918397,15.3601172 2.04363281,15.3601172 L15.9563672,15.3601172 C16.230816,15.3601172 16.4533008,15.5826019 16.4533008,15.8570508 C16.4533008,16.1314996 16.230816,16.3539844 15.9563672,16.3539844 Z" id="路径" fill="#FFFFFF" fill-rule="nonzero"></path>
                        <path d="M7.90681641,8.20494141 L5.22369141,8.20494141 C5.04395796,8.20832224 4.87641153,8.11437036 4.78555467,7.95925566 C4.6946978,7.80414096 4.6946978,7.61205045 4.78555467,7.45693575 C4.87641153,7.30182105 5.04395796,7.20786917 5.22369141,7.21125 L7.90681641,7.21125 C8.08654985,7.20786917 8.25409628,7.30182105 8.34495315,7.45693575 C8.43581001,7.61205045 8.43581001,7.80414096 8.34495315,7.95925566 C8.25409628,8.11437036 8.08654985,8.20832224 7.90681641,8.20494141 L7.90681641,8.20494141 Z M7.90681641,10.1925 L5.22369141,10.1925 C5.04395796,10.1958808 4.87641153,10.101929 4.78555467,9.94681425 C4.6946978,9.79169955 4.6946978,9.59960904 4.78555467,9.44449434 C4.87641153,9.28937964 5.04395796,9.19542776 5.22369141,9.19880859 L7.90681641,9.19880859 C8.08654985,9.19542776 8.25409628,9.28937964 8.34495315,9.44449434 C8.43581001,9.59960904 8.43581001,9.79169955 8.34495315,9.94681425 C8.25409628,10.101929 8.08654985,10.1958808 7.90681641,10.1925 L7.90681641,10.1925 Z M7.90681641,12.1800586 L5.22369141,12.1800586 C5.04395796,12.1834394 4.87641153,12.0894875 4.78555467,11.9343728 C4.6946978,11.7792581 4.6946978,11.5871676 4.78555467,11.4320529 C4.87641153,11.2769382 5.04395796,11.1829864 5.22369141,11.1863672 L7.90681641,11.1863672 C8.08654985,11.1829864 8.25409628,11.2769382 8.34495315,11.4320529 C8.43581001,11.5871676 8.43581001,11.7792581 8.34495315,11.9343728 C8.25409628,12.0894875 8.08654985,12.1834394 7.90681641,12.1800586 L7.90681641,12.1800586 Z" id="形状" fill="#FFFFFF" fill-rule="nonzero"></path>
                    </g>
                </g>
            </g>
        </g>
    </g>
</svg>