<?xml version="1.0" encoding="UTF-8"?>
<svg width="60px" height="60px" viewBox="0 0 60 60" version="1.1" xmlns="http://www.w3.org/2000/svg" xmlns:xlink="http://www.w3.org/1999/xlink">
    <title>定位</title>
    <defs>
        <rect id="path-1" x="0" y="0" width="40" height="40" rx="8"></rect>
        <filter x="-35.0%" y="-35.0%" width="180.0%" height="180.0%" filterUnits="objectBoundingBox" id="filter-2">
            <feOffset dx="2" dy="2" in="SourceAlpha" result="shadowOffsetOuter1"></feOffset>
            <feGaussianBlur stdDeviation="5" in="shadowOffsetOuter1" result="shadowBlurOuter1"></feGaussianBlur>
            <feComposite in="shadowBlurOuter1" in2="SourceAlpha" operator="out" result="shadowBlurOuter1"></feComposite>
            <feColorMatrix values="0 0 0 0 0.497525865   0 0 0 0 0.497525865   0 0 0 0 0.497525865  0 0 0 0.5 0" type="matrix" in="shadowBlurOuter1"></feColorMatrix>
        </filter>
    </defs>
    <g id="app界面" stroke="none" stroke-width="1" fill="none" fill-rule="evenodd">
        <g id="切图" transform="translate(-685.000000, -40.000000)">
            <g id="定位" transform="translate(693.000000, 48.000000)">
                <g id="矩形备份">
                    <use fill="black" fill-opacity="1" filter="url(#filter-2)" xlink:href="#path-1"></use>
                    <use fill-opacity="0.80043638" fill="#FFFFFF" fill-rule="evenodd" xlink:href="#path-1"></use>
                </g>
                <g transform="translate(8.000000, 8.000000)" fill="#333333" fill-rule="nonzero">
                    <rect id="矩形" opacity="0" x="0" y="0" width="24" height="24"></rect>
                    <path d="M10.125,12 C10.125,13.0355339 10.9644661,13.875 12,13.875 C13.0355339,13.875 13.875,13.0355339 13.875,12 C13.875,10.9644661 13.0355339,10.125 12,10.125 C10.9644661,10.125 10.125,10.9644661 10.125,12 Z M22.5,11.25 L21.71175,11.25 C21.34575,6.4725 17.5275,2.65425 12.75,2.28825 L12.75,1.5 C12.75,1.08578644 12.4142136,0.75 12,0.75 C11.5857864,0.75 11.25,1.08578644 11.25,1.5 L11.25,2.28825 C6.4725,2.65425 2.65425,6.4725 2.28825,11.25 L1.5,11.25 C1.08578644,11.25 0.75,11.5857864 0.75,12 C0.75,12.4142136 1.08578644,12.75 1.5,12.75 L2.28825,12.75 C2.65425,17.5275 6.4725,21.34575 11.25,21.71175 L11.25,22.5 C11.25,22.9142136 11.5857864,23.25 12,23.25 C12.4142136,23.25 12.75,22.9142136 12.75,22.5 L12.75,21.71175 C17.5275,21.34575 21.34575,17.5275 21.71175,12.75 L22.5,12.75 C22.9142136,12.75 23.25,12.4142136 23.25,12 C23.25,11.5857864 22.9142136,11.25 22.5,11.25 Z M12.75,20.21175 L12.75,18.75 C12.75,18.3357864 12.4142136,18 12,18 C11.5857864,18 11.25,18.3357864 11.25,18.75 L11.25,20.21175 C7.299,19.854 4.146,16.701 3.78825,12.75 L5.25,12.75 C5.66421356,12.75 6,12.4142136 6,12 C6,11.5857864 5.66421356,11.25 5.25,11.25 L3.78825,11.25 C4.146,7.299 7.299,4.146 11.25,3.78825 L11.25,5.25 C11.25,5.66421356 11.5857864,6 12,6 C12.4142136,6 12.75,5.66421356 12.75,5.25 L12.75,3.78825 C16.701,4.14675 19.854,7.299 20.21175,11.25 L18.75,11.25 C18.3357864,11.25 18,11.5857864 18,12 C18,12.4142136 18.3357864,12.75 18.75,12.75 L20.21175,12.75 C19.854,16.701 16.701,19.854 12.75,20.21175 Z" id="形状"></path>
                </g>
            </g>
        </g>
    </g>
</svg>