<?xml version="1.0" encoding="UTF-8"?>
<svg width="19px" height="22px" viewBox="0 0 19 22" version="1.1" xmlns="http://www.w3.org/2000/svg" xmlns:xlink="http://www.w3.org/1999/xlink">
    <title>定位</title>
    <g id="app界面" stroke="none" stroke-width="1" fill="none" fill-rule="evenodd">
        <g id="切图" transform="translate(-573.000000, -58.000000)" fill="#5B8FF9" fill-rule="nonzero" stroke="#5B8FF9" stroke-width="0.4">
            <g id="定位" transform="translate(573.000000, 59.000000)">
                <path d="M9.31665652,6.5798287 L9.31665646,6.5798287 C10.3982662,6.58140438 11.2738089,7.45948894 11.2722378,8.54108808 C11.2706619,9.62268722 10.3925687,10.4982214 9.310959,10.4966503 C8.22934929,10.4950744 7.35380652,9.61698983 7.3553777,8.53539069 C7.35613095,8.01916586 7.56067501,7.52411747 7.924523,7.1579129 L7.92452285,7.15791305 C8.29285181,6.78720049 8.79406819,6.57906931 9.3166563,6.5798287 M9.3166563,5.40003323 L9.31665622,5.40003323 C7.5769593,5.40270373 6.16879284,6.81512948 6.17143228,8.5548031 C6.17407073,10.294483 7.58651029,11.7026357 9.32620092,11.6999963 C11.0658978,11.6973579 12.4740643,10.2849321 12.4714249,8.5452585 C12.4701566,7.71031719 12.137451,6.91003435 11.5464201,6.32027409 L11.5464202,6.3202742 C10.9561863,5.7276149 10.1530805,5.39617997 9.31665214,5.40003323 L9.3166563,5.40003323 Z" id="形状"></path>
                <path d="M3.47499758,2.31543106 C3.40662636,2.38016937 3.33938081,2.44603858 3.27328979,2.51301041 C-0.0625251688,5.89244488 -0.0625251688,11.2539267 3.2732896,14.6333614 C5.67909541,17.0465307 7.48344976,18.8564076 8.68635267,20.0629923 C8.827478,20.2045495 9.03916997,20.3220614 9.32142857,20.415528 L9.6240097,20.2674957 L9.9053421,20.1024673 L9.9789993,20.0404073 L15.3695672,14.6333614 C18.7053824,11.2539267 18.7053824,5.89244487 15.3695672,2.51301022 C12.1406924,-0.758922057 6.81529752,-0.847380022 3.47499758,2.31543106 Z M14.4583943,13.7796251 L9.32143106,18.953749 L4.18446779,13.7796251 L4.184468,13.7796253 C1.34827257,10.9146774 1.34827257,6.36102421 4.18446758,3.49607635 L4.18446802,3.4960759 C6.9370726,0.717079004 11.4683779,0.650011031 14.3054421,3.34626891 C14.3571888,3.39544749 14.4081741,3.44538921 14.4583802,3.49607682 L14.4583805,3.49607709 C17.2945759,6.36102496 17.2945759,10.9146781 14.45838,13.779626 L14.4583943,13.7796251 Z" id="形状"></path>
            </g>
        </g>
    </g>
</svg>