<?xml version="1.0" encoding="UTF-8"?>
<svg width="18px" height="18px" viewBox="0 0 18 18" version="1.1" xmlns="http://www.w3.org/2000/svg" xmlns:xlink="http://www.w3.org/1999/xlink">
    <title>定位</title>
    <g id="app界面" stroke="none" stroke-width="1" fill="none" fill-rule="evenodd">
        <g id="切图" transform="translate(-573.000000, -129.000000)" fill-rule="nonzero">
            <g id="编组-42" transform="translate(573.000000, 127.000000)">
                <g id="定位" transform="translate(0.000000, 2.000000)">
                    <rect id="矩形" fill="#000000" opacity="0" x="0" y="0" width="18" height="18"></rect>
                    <path d="M9.0069082,1.20000586 C5.5329082,1.20000586 2.71529297,3.861 2.7,7.18020703 L2.70149414,7.31819531 C2.72849414,8.46358594 3.09299414,9.55200586 3.74668945,10.486793 L3.81719531,10.5854941 L3.84929297,10.6374023 L3.879,10.6818047 C3.89913599,10.7104041 3.92086771,10.7378461 3.9440918,10.764 L3.94950586,10.7699941 L8.05109766,15.9735059 C8.10950762,16.0477226 8.17647496,16.1147844 8.25060937,16.1732988 L8.30339648,16.2123047 C8.82462539,16.5786125 9.54124839,16.4737738 9.93570117,15.9735059 L14.037293,10.7699941 L14.0085,10.8011953 C14.0594941,10.7489883 14.0985,10.6973965 14.137207,10.6377012 L14.175,10.576793 C14.8865977,9.60841406 15.2850059,8.43180469 15.3,7.19070117 C15.3,3.86878711 12.474,1.20000586 9.0069082,1.20000586 L9.0069082,1.20000586 Z M9.0069082,2.39999414 C11.8262988,2.39999414 14.0999941,4.5470918 14.0999941,7.18319531 C14.0888941,8.15792848 13.7712937,9.10444471 13.192207,9.8885918 L13.1285918,9.9875918 C13.1358408,9.97748921 13.1439766,9.96805338 13.1529023,9.95939648 L13.1093965,10.0086152 L8.9934082,15.230707 L4.87740234,10.0085977 L4.85400586,9.981 L4.80930469,9.91019531 L4.8444082,9.97020703 L4.84140234,9.96720117 L4.84709766,9.97500586 C4.212,9.09599414 3.89998828,8.16389648 3.89998828,7.18319531 C3.91199414,4.54169531 6.17999414,2.39999414 9.0069082,2.39999414 L9.0069082,2.39999414 Z" id="形状" fill="#444444"></path>
                    <path d="M9,4.58820703 C7.50883118,4.58820703 6.3,5.79703821 6.3,7.28820703 C6.3,8.77937586 7.50883118,9.98820703 9,9.98820703 C10.4911688,9.98820703 11.7,8.77937586 11.7,7.28820703 C11.7,5.79703821 10.4911688,4.58820703 9,4.58820703 Z M8.99999707,5.78819531 C9.53589944,5.78819531 10.0310909,6.07409424 10.2990407,6.53819677 C10.5669904,7.00229929 10.5669904,7.57409719 10.2990407,8.03819972 C10.0310909,8.50230224 9.53589944,8.78819531 8.99999707,8.78819531 C8.17157126,8.78819531 7.49999707,8.11662698 7.49999707,7.28819531 C7.49999707,6.4597695 8.17157126,5.78819531 8.99999707,5.78819531 Z" id="形状" fill="#00B386"></path>
                </g>
            </g>
        </g>
    </g>
</svg>