<?xml version="1.0" encoding="UTF-8"?>
<svg width="43px" height="47px" viewBox="0 0 43 47" version="1.1" xmlns="http://www.w3.org/2000/svg" xmlns:xlink="http://www.w3.org/1999/xlink">
    <title>定位备份</title>
    <defs>
        <filter x="-53.5%" y="-44.8%" width="207.0%" height="189.6%" filterUnits="objectBoundingBox" id="filter-1">
            <feOffset dx="0" dy="2" in="SourceAlpha" result="shadowOffsetOuter1"></feOffset>
            <feGaussianBlur stdDeviation="2" in="shadowOffsetOuter1" result="shadowBlurOuter1"></feGaussianBlur>
            <feColorMatrix values="0 0 0 0 0.359205163   0 0 0 0 0.359205163   0 0 0 0 0.359205163  0 0 0 0.560617727 0" type="matrix" in="shadowBlurOuter1" result="shadowMatrixOuter1"></feColorMatrix>
            <feMerge>
                <feMergeNode in="shadowMatrixOuter1"></feMergeNode>
                <feMergeNode in="SourceGraphic"></feMergeNode>
            </feMerge>
        </filter>
    </defs>
    <g id="app界面" stroke="none" stroke-width="1" fill="none" fill-rule="evenodd">
        <g id="2-1首页" transform="translate(-158.000000, -420.000000)" fill="#5BE8F9" fill-rule="nonzero" stroke="#5BE8F9" stroke-width="0.4">
            <g id="定位备份" filter="url(#filter-1)" transform="translate(168.028571, 430.000000)">
                <path d="M11.3936373,8.77310499 L11.3936372,8.77310499 C12.8357835,8.77520591 14.0031739,9.94598532 14.0010789,11.3881175 C13.9989778,12.8302497 12.8281869,13.9976286 11.3860406,13.9955337 C9.94389432,13.9934326 8.77650396,12.8226532 8.77859888,11.380521 C8.7796032,10.6922212 9.05232862,10.0321567 9.53745927,9.54388394 L9.53745907,9.54388414 C10.0285644,9.04960072 10.6968529,8.77209248 11.393637,8.77310499 M11.393637,7.20004437 L11.3936369,7.20004437 C9.074041,7.20360504 7.19648573,9.08683938 7.20000497,11.4064042 C7.20352291,13.7259774 9.08677566,15.6035143 11.4063632,15.5999951 C13.7259591,15.5964772 15.6035143,13.7132429 15.5999951,11.3936781 C15.5983041,10.280423 15.1546966,9.2133792 14.3666553,8.42703218 L14.3666555,8.42703234 C13.5796771,7.63681993 12.5088693,7.19490669 11.3936315,7.20004437 L11.393637,7.20004437 Z" id="形状"></path>
                <path d="M3.60475871,3.08724148 C3.51359709,3.17355922 3.42393635,3.26138484 3.33581499,3.35068062 C-1.11193829,7.85659324 -1.11193829,15.0052357 3.33581474,19.5111486 C6.54355581,22.7287076 8.94936162,25.1418769 10.5532322,26.7506564 C10.7413993,26.9393995 11.0236552,27.096082 11.4,27.220704 L11.8034415,27.0233277 L12.1785514,26.8032899 L12.276761,26.7205431 L19.4641849,19.5111486 C23.9119384,15.0052357 23.9119384,7.85659323 19.4641849,3.35068035 C15.1590185,-1.01189601 8.05849196,-1.12983996 3.60475871,3.08724148 Z M18.2492877,18.3728335 L11.4000033,25.2716654 L4.55071899,18.3728335 L4.55071927,18.3728338 C0.769125362,14.5529033 0.769125362,8.48136568 4.55071871,4.66143519 L4.5507193,4.6614346 C8.22085874,0.956105406 14.2625991,0.866681442 18.0453514,4.46169195 C18.114347,4.52726339 18.1823273,4.59385235 18.2492689,4.66143583 L18.2492693,4.66143619 C22.0308632,8.48136667 22.0308632,14.5529043 18.2492685,18.3728347 L18.2492877,18.3728335 Z" id="形状"></path>
            </g>
        </g>
    </g>
</svg>